<svg width="43" height="42" viewBox="0 0 43 42" fill="none" xmlns="http://www.w3.org/2000/svg">
<path d="M11.3356 33.8148L29.4013 31.4565C29.7759 31.407 30.0395 31.0631 29.9899 30.6885C29.972 30.5528 29.9137 30.4256 29.8228 30.3234L25.7152 25.7171C33.2798 18.3884 30.6487 6.78155 25.7079 1.03523L25.6851 1.00971C25.4336 0.727674 25.0011 0.702917 24.719 0.954418C24.4401 1.20305 24.4123 1.62948 24.6565 1.91232L24.6829 1.94196C25.8489 3.36463 25.7568 14.0684 20.246 19.5838L16.1612 15.003C15.9094 14.7213 15.4768 14.697 15.195 14.9488C15.093 15.04 15.0206 15.1598 14.9873 15.2925L10.5832 32.9712C10.492 33.3379 10.7153 33.7091 11.0821 33.8003C11.1649 33.8209 11.2509 33.8258 11.3356 33.8148Z" fill="#6BEBEC"/>
</svg>
